<svg width="303" height="72" viewBox="0 0 303 72" fill="none" xmlns="http://www.w3.org/2000/svg">
<g clip-path="url(#clip0_35_2)">
<path d="M118.509 1L139.315 58.4889L160.023 1H172.349L146.119 70.7164H132.215L105.887 1H118.509Z" fill="white"/>
<path d="M190.827 45.1767V70.7164H179.388V1H206.505C210.121 1 213.507 1.36156 216.662 2.08469C219.818 2.80782 222.546 4.024 224.847 5.73322C227.213 7.44243 229.054 9.71044 230.369 12.5372C231.749 15.364 232.439 18.8482 232.439 22.9897C232.439 25.8165 232.012 28.4132 231.158 30.7798C230.369 33.0807 229.284 35.1186 227.903 36.8936C226.523 38.6028 224.912 40.049 223.072 41.2323C221.231 42.3499 219.259 43.1717 217.155 43.6976L232.242 70.7164H219.522C217.221 66.4433 214.887 62.2031 212.52 57.9958C210.22 53.7228 207.886 49.4497 205.519 45.1767H190.827ZM204.928 35.2172C207.163 35.2172 209.266 35.02 211.239 34.6256C213.211 34.2311 214.92 33.5737 216.366 32.6534C217.812 31.733 218.93 30.484 219.719 28.9063C220.574 27.2628 221.001 25.192 221.001 22.6939C221.001 20.4588 220.639 18.6181 219.916 17.1718C219.259 15.7256 218.273 14.5751 216.958 13.7205C215.643 12.8002 214.065 12.1757 212.225 11.847C210.384 11.4525 208.346 11.2553 206.111 11.2553H190.827V35.2172H204.928Z" fill="white"/>
<path d="M290.122 70.7164L284.995 56.6153H253.341L248.115 70.7164H235.69L262.118 1H276.317L302.646 70.7164H290.122ZM281.445 46.36L269.217 12.2414L256.891 46.36H281.445Z" fill="white"/>
<path d="M4.90625 28.2344C6.28574 30.9469 7.76304 33.5393 9.33105 35.999C7.76319 38.4585 6.28562 41.0505 4.90625 43.7627C4.40817 43.0546 3.91702 42.338 3.43652 41.6113C2.24142 39.8038 1.0962 37.931 0 35.999C1.0962 34.067 2.24142 32.1942 3.43652 30.3867C3.91717 29.6598 4.40801 28.9426 4.90625 28.2344Z" fill="white"/>
<path d="M100.873 28.2344C101.371 28.9427 101.862 29.6597 102.343 30.3867C103.538 32.1943 104.684 34.0669 105.78 35.999C104.684 37.9311 103.538 39.8038 102.343 41.6113C101.862 42.3381 101.371 43.0546 100.873 43.7627C99.4936 41.0503 98.0153 38.4587 96.4473 35.999C98.0154 33.5391 99.4935 30.947 100.873 28.2344Z" fill="white"/>
<path d="M52.8828 0C72.3086 0 89.0412 11.4253 100.866 28.2344C99.4865 30.9473 98.0087 33.5399 96.4404 36C85.4363 18.7382 69.9892 8 52.8828 8C35.7763 8 20.3284 18.738 9.32422 36C7.75596 33.5399 6.2781 30.9473 4.89844 28.2344C16.7234 11.4251 33.4569 0 52.8828 0Z" fill="white"/>
<path d="M96.4404 36C98.0086 38.4599 99.4866 41.052 100.866 43.7646C89.0412 60.5741 72.3088 72 52.8828 72C33.4566 72 16.7234 60.5743 4.89844 43.7646C6.27799 41.052 7.75611 38.4599 9.32422 36C20.3284 53.262 35.7763 64 52.8828 64C69.9892 64 85.4363 53.2618 96.4404 36Z" fill="white"/>
<path d="M53 16C56.3837 16 59.5704 16.8419 62.3643 18.3252C62.104 18.2996 61.8402 18.2861 61.5732 18.2861C57.155 18.2861 53.5732 21.8679 53.5732 26.2861C53.5733 30.7044 57.155 34.2861 61.5732 34.2861C65.9914 34.286 69.5732 30.7043 69.5732 26.2861C69.5732 25.6761 69.5014 25.0827 69.3721 24.5117C71.6574 27.7626 73 31.7243 73 36C73 47.0457 64.0457 56 53 56C41.9543 56 33 47.0457 33 36C33 24.9543 41.9543 16 53 16Z" fill="white"/>
</g>
<defs>
<clipPath id="clip0_35_2">
<rect width="303" height="72" fill="white"/>
</clipPath>
</defs>
</svg>
